<svg id="d96aeaab-7793-41cb-b073-be7befbcdf6e" data-name="圖層 1" xmlns="http://www.w3.org/2000/svg" viewBox="0 0 500 500"><defs><style>.f353f2d4-1bd0-43d2-871a-d798cdc9f757{fill:#00bf7a;}.b1b895de-3de8-439a-80af-c4b07a02d922{fill:#214b62;}.a88aaff8-d817-4f12-891e-89df8f317b88{fill:#fff;}</style></defs><title>未命名-2</title><polygon class="f353f2d4-1bd0-43d2-871a-d798cdc9f757" points="148.89 287.46 114.37 347.29 2.02 152.71 71.13 152.71 109.66 219.47 114.37 227.6 148.89 287.46"/><path class="b1b895de-3de8-439a-80af-c4b07a02d922" d="M114.37,349.31a2,2,0,0,1-1.75-1L.27,153.72a2,2,0,0,1,1.75-3H71.13a2,2,0,0,1,1.75,1l77.76,134.75a2,2,0,0,1,0,2L116.12,348.3A2,2,0,0,1,114.37,349.31ZM5.52,154.73,114.37,343.25l32.19-55.78L70,154.73Z"/><polygon class="a88aaff8-d817-4f12-891e-89df8f317b88" points="226.68 152.71 148.89 287.46 114.37 227.6 157.6 152.71 226.68 152.71"/><path class="b1b895de-3de8-439a-80af-c4b07a02d922" d="M148.89,289.49h0a2,2,0,0,1-1.75-1l-34.52-59.87a2,2,0,0,1,0-2l43.23-74.89a2,2,0,0,1,1.75-1h69.08a2,2,0,0,1,1.75,3L150.64,288.48A2,2,0,0,1,148.89,289.49ZM116.7,227.6l32.19,55.82,74.29-128.69H158.77Z"/><polygon class="a88aaff8-d817-4f12-891e-89df8f317b88" points="306.16 290.39 273.32 347.29 269.95 347.29 226.68 272.4 260.7 211.61 306.16 290.39"/><path class="b1b895de-3de8-439a-80af-c4b07a02d922" d="M273.32,349.31H270a2,2,0,0,1-1.75-1l-43.27-74.89a2,2,0,0,1,0-2l34-60.78a2,2,0,0,1,1.75-1h0a2,2,0,0,1,1.75,1l45.46,78.78a2,2,0,0,1,0,2l-32.84,56.9A2,2,0,0,1,273.32,349.31Zm-2.2-4h1l31.67-54.88-43.1-74.69L229,272.38Z"/><path class="b1b895de-3de8-439a-80af-c4b07a02d922" d="M262.45,210.6l-34-58.9a2.1,2.1,0,0,0-3.5,0L147.14,286.45l-34.52,59.83a2,2,0,0,0,1.75,3h69.08a2,2,0,0,0,1.75-1l43.25-74.92,34-60.78A2,2,0,0,0,262.45,210.6Z"/><polygon class="a88aaff8-d817-4f12-891e-89df8f317b88" points="497.98 347.29 428.9 347.29 385.63 272.4 382.93 277.1 419.58 211.52 497.98 347.29"/><path class="b1b895de-3de8-439a-80af-c4b07a02d922" d="M498,349.31H428.9a2,2,0,0,1-1.75-1l-41.51-71.85-1,1.66a2,2,0,0,1-3.51-2l36.65-65.59a2,2,0,0,1,1.75-1h0a2,2,0,0,1,1.75,1l78.4,135.77a2,2,0,0,1-1.75,3Zm-67.91-4h64.41L419.61,215.61l-31.69,56.71Z"/><path class="b1b895de-3de8-439a-80af-c4b07a02d922" d="M421.33,210.51,387.38,151.7a2.1,2.1,0,0,0-3.5,0L304.41,289.38l-32.84,56.9a2,2,0,0,0,1.75,3H342.4a2,2,0,0,0,1.75-1l39.9-69.08,37.3-66.71A2,2,0,0,0,421.33,210.51Z"/></svg>