<svg id="02ba15b9-ba39-4bf8-9e5f-2125f251970b" data-name="圖層 1" xmlns="http://www.w3.org/2000/svg" viewBox="0 0 220 40"><defs><style>.bce17ccf-b24b-469e-b8ed-e6cf5a11507f{fill:#00bf7a;}.\32 44bc74f-e07f-4c7a-84df-c715ae479942{fill:#214b62;}.bbecb739-7c1f-4a83-bd3c-dcdcab1ca44e{fill:#fff;}</style></defs><title>未命名-2</title><polygon class="bce17ccf-b24b-469e-b8ed-e6cf5a11507f" points="25.96 24.49 21.78 31.74 8.18 8.18 16.54 8.18 21.21 16.26 21.78 17.25 25.96 24.49"/><path class="244bc74f-e07f-4c7a-84df-c715ae479942" d="M21.78,32a.24.24,0,0,1-.21-.12L8,8.3a.25.25,0,0,1,.22-.37h8.36a.27.27,0,0,1,.22.12l9.41,16.32a.25.25,0,0,1,0,.24L22,31.86A.24.24,0,0,1,21.78,32ZM8.6,8.42,21.78,31.25l3.9-6.76L16.4,8.42Z"/><polygon class="bbecb739-7c1f-4a83-bd3c-dcdcab1ca44e" points="35.38 8.18 25.96 24.49 21.78 17.25 27.01 8.18 35.38 8.18"/><path class="244bc74f-e07f-4c7a-84df-c715ae479942" d="M26,24.74h0a.23.23,0,0,1-.21-.13l-4.18-7.24a.23.23,0,0,1,0-.25L26.8,8.05A.27.27,0,0,1,27,7.93h8.37a.24.24,0,0,1,.21.12.28.28,0,0,1,0,.25L26.17,24.61A.23.23,0,0,1,26,24.74Zm-3.9-7.5L26,24,35,8.42H27.16Z"/><polygon class="bbecb739-7c1f-4a83-bd3c-dcdcab1ca44e" points="45 24.85 41.02 31.74 40.62 31.74 35.38 22.67 39.5 15.31 45 24.85"/><path class="244bc74f-e07f-4c7a-84df-c715ae479942" d="M41,32h-.4a.27.27,0,0,1-.22-.12l-5.23-9.07a.23.23,0,0,1,0-.24l4.12-7.36a.26.26,0,0,1,.21-.13h0a.26.26,0,0,1,.21.13l5.5,9.53a.23.23,0,0,1,0,.25l-4,6.89A.27.27,0,0,1,41,32Zm-.26-.49h.12l3.84-6.64-5.22-9-3.84,6.87Z"/><path class="244bc74f-e07f-4c7a-84df-c715ae479942" d="M39.71,15.19,35.59,8.05a.25.25,0,0,0-.42,0L25.75,24.37l-4.18,7.24a.23.23,0,0,0,0,.25.24.24,0,0,0,.21.12h8.36a.27.27,0,0,0,.22-.12l5.23-9.07,4.12-7.36A.25.25,0,0,0,39.71,15.19Z"/><polygon class="bbecb739-7c1f-4a83-bd3c-dcdcab1ca44e" points="68.23 31.74 59.86 31.74 54.62 22.67 54.3 23.24 58.73 15.3 68.23 31.74"/><path class="244bc74f-e07f-4c7a-84df-c715ae479942" d="M68.23,32H59.86a.26.26,0,0,1-.21-.12l-5-8.7-.11.2a.24.24,0,0,1-.33.09.25.25,0,0,1-.1-.33l4.44-7.94a.23.23,0,0,1,.21-.13h0a.27.27,0,0,1,.22.12l9.49,16.44a.28.28,0,0,1,0,.25A.27.27,0,0,1,68.23,32ZM60,31.49h7.8l-9.06-15.7L54.9,22.66Z"/><path class="244bc74f-e07f-4c7a-84df-c715ae479942" d="M59,15.17,54.84,8.05a.26.26,0,0,0-.43,0L44.79,24.72l-4,6.89a.28.28,0,0,0,0,.25A.27.27,0,0,0,41,32h8.37a.24.24,0,0,0,.21-.12l4.83-8.37L59,15.42A.28.28,0,0,0,59,15.17Z"/><path class="bbecb739-7c1f-4a83-bd3c-dcdcab1ca44e" d="M84.72,14.53,80.18,27.38h-2L73.65,14.53h2l2.76,8.06c.15.43.3.91.45,1.42s.25,1,.32,1.41A12.65,12.65,0,0,1,79.5,24q.21-.77.45-1.44l2.75-8Z"/><path class="bbecb739-7c1f-4a83-bd3c-dcdcab1ca44e" d="M94.38,17.68v9.7H92.85l-.27-1.28h-.09a2.74,2.74,0,0,1-1.29,1.11,4.56,4.56,0,0,1-1.75.35,3.69,3.69,0,0,1-2.61-.84,3.52,3.52,0,0,1-.9-2.69V17.68h1.93v6.06a2.57,2.57,0,0,0,.47,1.7,1.87,1.87,0,0,0,1.49.55,2.31,2.31,0,0,0,2.07-.87,4.62,4.62,0,0,0,.57-2.53V17.68Z"/><path class="bbecb739-7c1f-4a83-bd3c-dcdcab1ca44e" d="M101.19,17.5a3.88,3.88,0,0,1,3,1.18,4.51,4.51,0,0,1,1.1,3.21v1H98.77a3.36,3.36,0,0,0,.79,2.29,2.71,2.71,0,0,0,2.09.79,7.6,7.6,0,0,0,1.67-.17,8.06,8.06,0,0,0,1.5-.51v1.58a7.09,7.09,0,0,1-1.47.5,9.06,9.06,0,0,1-1.77.15A5.36,5.36,0,0,1,99.1,27a4,4,0,0,1-1.69-1.66,5.63,5.63,0,0,1-.6-2.73,6.25,6.25,0,0,1,.55-2.77,4.08,4.08,0,0,1,1.53-1.74A4.31,4.31,0,0,1,101.19,17.5Zm0,1.47a2.15,2.15,0,0,0-1.65.67,3,3,0,0,0-.73,1.89h4.57a3.06,3.06,0,0,0-.55-1.85A1.92,1.92,0,0,0,101.19,19Z"/><path class="bce17ccf-b24b-469e-b8ed-e6cf5a11507f" d="M114.49,27.38h-1.93V14.53h7.24v1.65h-5.31v4.2h5V22h-5Z"/><path class="bce17ccf-b24b-469e-b8ed-e6cf5a11507f" d="M122.82,14a1.2,1.2,0,0,1,.76.25,1,1,0,0,1,.32.84,1,1,0,0,1-.32.84,1.26,1.26,0,0,1-1.53,0,1,1,0,0,1-.33-.84,1,1,0,0,1,.33-.84A1.19,1.19,0,0,1,122.82,14Zm.94,3.69v9.7h-1.91v-9.7Z"/><path class="bce17ccf-b24b-469e-b8ed-e6cf5a11507f" d="M131.66,17.5a3.65,3.65,0,0,1,2.59.84,3.59,3.59,0,0,1,.9,2.72v6.32h-1.89V21.33c0-1.51-.66-2.27-2-2.27a2.26,2.26,0,0,0-2,.88,4.71,4.71,0,0,0-.57,2.54v4.9h-1.9v-9.7h1.51l.27,1.29h.11a2.82,2.82,0,0,1,1.28-1.11A4.3,4.3,0,0,1,131.66,17.5Z"/><path class="bce17ccf-b24b-469e-b8ed-e6cf5a11507f" d="M141.85,17.5a4,4,0,0,1,2.72.8,3.16,3.16,0,0,1,.91,2.51v6.57h-1.35L143.76,26h-.08a4.37,4.37,0,0,1-1.32,1.16,4.07,4.07,0,0,1-1.92.37,3.31,3.31,0,0,1-2.17-.71,2.72,2.72,0,0,1-.87-2.22,2.56,2.56,0,0,1,1.13-2.26,6.53,6.53,0,0,1,3.42-.84l1.66-.05v-.54a2,2,0,0,0-.48-1.51,2,2,0,0,0-1.37-.44,4.49,4.49,0,0,0-1.42.22,8.42,8.42,0,0,0-1.32.52l-.61-1.39a7.56,7.56,0,0,1,1.57-.6A7.21,7.21,0,0,1,141.85,17.5Zm1.74,5.22-1.29,0a4.34,4.34,0,0,0-2.3.56,1.61,1.61,0,0,0-.64,1.33,1.29,1.29,0,0,0,.45,1.1,1.87,1.87,0,0,0,1.17.34,2.8,2.8,0,0,0,1.87-.63,2.36,2.36,0,0,0,.74-1.89Z"/><path class="bce17ccf-b24b-469e-b8ed-e6cf5a11507f" d="M150.32,27.38h-1.9V13.7h1.9Z"/><path class="bce17ccf-b24b-469e-b8ed-e6cf5a11507f" d="M163.81,27.38l-3.89-10.93h-.07c0,.26,0,.58.06,1s0,.84,0,1.32,0,.93,0,1.38v7.25h-1.76V14.53H161l3.69,10.31h.07l3.8-10.31h2.77V27.38h-1.89V20c0-.42,0-.86,0-1.3s0-.86.05-1.26,0-.73.05-1h-.07l-4,10.91Z"/><path class="bce17ccf-b24b-469e-b8ed-e6cf5a11507f" d="M183.07,22.52a5.18,5.18,0,0,1-1.25,3.72,4.35,4.35,0,0,1-3.34,1.32,4.56,4.56,0,0,1-2.33-.59,4.1,4.1,0,0,1-1.61-1.71,5.87,5.87,0,0,1-.58-2.74,5.26,5.26,0,0,1,1.22-3.72,4.37,4.37,0,0,1,3.35-1.3,4.63,4.63,0,0,1,2.35.58,4.11,4.11,0,0,1,1.6,1.7A5.87,5.87,0,0,1,183.07,22.52Zm-7.15,0a4.53,4.53,0,0,0,.62,2.55,2.57,2.57,0,0,0,3.94,0,4.45,4.45,0,0,0,.62-2.55,4.39,4.39,0,0,0-.62-2.55,2.64,2.64,0,0,0-3.95,0A4.47,4.47,0,0,0,175.92,22.52Z"/><path class="bce17ccf-b24b-469e-b8ed-e6cf5a11507f" d="M188.81,27.56A3.52,3.52,0,0,1,186,26.3a5.67,5.67,0,0,1-1.06-3.74A5.77,5.77,0,0,1,186,18.77a3.93,3.93,0,0,1,4.64-.86,3.73,3.73,0,0,1,1.14,1h.11c0-.17-.06-.42-.09-.74a7,7,0,0,1-.06-.85V13.7h1.91V27.38h-1.49l-.33-1.3h-.09a3.27,3.27,0,0,1-2.93,1.48Zm.45-1.57a2.31,2.31,0,0,0,2-.77,4.05,4.05,0,0,0,.58-2.36v-.29a5.13,5.13,0,0,0-.54-2.61,2.18,2.18,0,0,0-2-.9,2,2,0,0,0-1.76.94,4.77,4.77,0,0,0-.6,2.59,4.47,4.47,0,0,0,.6,2.52A2,2,0,0,0,189.26,26Z"/><path class="bce17ccf-b24b-469e-b8ed-e6cf5a11507f" d="M200.4,17.5a4,4,0,0,1,2.73.8,3.19,3.19,0,0,1,.91,2.51v6.57h-1.35L202.31,26h-.07a4.4,4.4,0,0,1-1.33,1.16,4.05,4.05,0,0,1-1.91.37,3.32,3.32,0,0,1-2.18-.71,2.72,2.72,0,0,1-.87-2.22,2.56,2.56,0,0,1,1.13-2.26,6.54,6.54,0,0,1,3.43-.84l1.65-.05v-.54a2,2,0,0,0-.48-1.51,2,2,0,0,0-1.37-.44,4.49,4.49,0,0,0-1.42.22,8.42,8.42,0,0,0-1.32.52L197,18.34a7.66,7.66,0,0,1,1.58-.6A7.08,7.08,0,0,1,200.4,17.5Zm1.75,5.22-1.3,0a4.3,4.3,0,0,0-2.29.56,1.58,1.58,0,0,0-.64,1.33,1.29,1.29,0,0,0,.45,1.1,1.87,1.87,0,0,0,1.17.34,2.79,2.79,0,0,0,1.86-.63,2.33,2.33,0,0,0,.75-1.89Z"/><path class="bce17ccf-b24b-469e-b8ed-e6cf5a11507f" d="M208.88,27.38H207V13.7h1.91Z"/></svg>