<svg id="cdf51981-028f-4579-8e23-c867cb595d12" data-name="圖層 1" xmlns="http://www.w3.org/2000/svg" viewBox="0 0 220 40"><defs><style>.ad05d9fc-e36b-4ae5-ac41-6da5f1163caf{fill:#00bf7a;}.\31 fd392fd-056f-4c2b-b23b-58ed15be02ff{fill:#214b62;}.\39 eeb86dd-2d92-4a82-b08f-da2f794c10a3{fill:#fff;}</style></defs><title>未命名-2</title><polygon class="ad05d9fc-e36b-4ae5-ac41-6da5f1163caf" points="18.03 24.49 13.85 31.74 0.24 8.18 8.61 8.18 13.28 16.26 13.85 17.25 18.03 24.49"/><path class="1fd392fd-056f-4c2b-b23b-58ed15be02ff" d="M13.85,32a.24.24,0,0,1-.21-.12L0,8.3a.28.28,0,0,1,0-.25.27.27,0,0,1,.21-.12H8.61a.24.24,0,0,1,.21.12l9.42,16.32a.25.25,0,0,1,0,.24l-4.18,7.25A.24.24,0,0,1,13.85,32ZM.67,8.42,13.85,31.25l3.9-6.76L8.47,8.42Z"/><polygon class="9eeb86dd-2d92-4a82-b08f-da2f794c10a3" points="27.45 8.18 18.03 24.49 13.85 17.25 19.08 8.18 27.45 8.18"/><path class="1fd392fd-056f-4c2b-b23b-58ed15be02ff" d="M18,24.74h0a.23.23,0,0,1-.21-.13l-4.18-7.24a.23.23,0,0,1,0-.25l5.23-9.07a.26.26,0,0,1,.21-.12h8.37a.26.26,0,0,1,.21.12.28.28,0,0,1,0,.25L18.24,24.61A.23.23,0,0,1,18,24.74Zm-3.9-7.5L18,24,27,8.42h-7.8Z"/><polygon class="9eeb86dd-2d92-4a82-b08f-da2f794c10a3" points="37.07 24.85 33.09 31.74 32.69 31.74 27.45 22.67 31.57 15.31 37.07 24.85"/><path class="1fd392fd-056f-4c2b-b23b-58ed15be02ff" d="M33.09,32h-.4a.27.27,0,0,1-.22-.12l-5.24-9.07a.26.26,0,0,1,0-.24l4.12-7.36a.24.24,0,0,1,.21-.13h0a.26.26,0,0,1,.21.13l5.5,9.53a.23.23,0,0,1,0,.25l-4,6.89A.27.27,0,0,1,33.09,32Zm-.26-.49H33l3.84-6.64-5.22-9-3.84,6.87Z"/><path class="1fd392fd-056f-4c2b-b23b-58ed15be02ff" d="M31.78,15.19,27.66,8.05a.26.26,0,0,0-.43,0L17.82,24.37l-4.18,7.24a.23.23,0,0,0,0,.25.24.24,0,0,0,.21.12h8.36a.24.24,0,0,0,.21-.12l5.24-9.07,4.12-7.36A.25.25,0,0,0,31.78,15.19Z"/><polygon class="9eeb86dd-2d92-4a82-b08f-da2f794c10a3" points="60.3 31.74 51.93 31.74 46.69 22.67 46.37 23.24 50.8 15.3 60.3 31.74"/><path class="1fd392fd-056f-4c2b-b23b-58ed15be02ff" d="M60.3,32H51.93a.24.24,0,0,1-.21-.12l-5-8.7-.11.2a.25.25,0,0,1-.34.09.25.25,0,0,1-.09-.33l4.44-7.94a.23.23,0,0,1,.21-.13h0a.27.27,0,0,1,.22.12l9.49,16.44a.28.28,0,0,1,0,.25A.27.27,0,0,1,60.3,32Zm-8.23-.49h7.8l-9.06-15.7L47,22.66Z"/><path class="1fd392fd-056f-4c2b-b23b-58ed15be02ff" d="M51,15.17,46.9,8.05a.25.25,0,0,0-.42,0L36.86,24.72l-4,6.89a.28.28,0,0,0,0,.25.27.27,0,0,0,.21.12h8.37a.24.24,0,0,0,.21-.12l4.83-8.37L51,15.42A.28.28,0,0,0,51,15.17Z"/><path class="1fd392fd-056f-4c2b-b23b-58ed15be02ff" d="M75.52,12.9l-5.28,15H67.9l-5.26-15H65l3.21,9.38c.18.51.36,1.06.52,1.66a14.86,14.86,0,0,1,.38,1.63,14.86,14.86,0,0,1,.38-1.63c.16-.6.34-1.16.52-1.68l3.21-9.36Z"/><path class="1fd392fd-056f-4c2b-b23b-58ed15be02ff" d="M86.77,16.56v11.3H85l-.32-1.49h-.1a3.28,3.28,0,0,1-1.51,1.29,5.18,5.18,0,0,1-2,.4,4.3,4.3,0,0,1-3-1,4.09,4.09,0,0,1-1-3.13v-7.4h2.25v7.06a3,3,0,0,0,.55,2,2.14,2.14,0,0,0,1.73.65,2.69,2.69,0,0,0,2.41-1,5.35,5.35,0,0,0,.67-2.95V16.56Z"/><path class="1fd392fd-056f-4c2b-b23b-58ed15be02ff" d="M94.68,16.36a4.53,4.53,0,0,1,3.5,1.37,5.27,5.27,0,0,1,1.28,3.74v1.21H91.88a3.87,3.87,0,0,0,.91,2.66,3.17,3.17,0,0,0,2.44.92,8.21,8.21,0,0,0,1.94-.2,10.61,10.61,0,0,0,1.75-.59v1.84a7.93,7.93,0,0,1-1.72.58,10.2,10.2,0,0,1-2,.17,6.17,6.17,0,0,1-2.9-.65,4.57,4.57,0,0,1-2-1.92,6.52,6.52,0,0,1-.7-3.19,7.42,7.42,0,0,1,.63-3.22,4.75,4.75,0,0,1,1.78-2A5,5,0,0,1,94.68,16.36Zm0,1.71a2.48,2.48,0,0,0-1.91.78,3.56,3.56,0,0,0-.85,2.2h5.32a3.59,3.59,0,0,0-.64-2.15A2.24,2.24,0,0,0,94.68,18.07Z"/><path class="ad05d9fc-e36b-4ae5-ac41-6da5f1163caf" d="M110.16,27.86h-2.24v-15h8.42v1.93h-6.18v4.88h5.78v1.92h-5.78Z"/><path class="ad05d9fc-e36b-4ae5-ac41-6da5f1163caf" d="M119.86,12.27a1.41,1.41,0,0,1,.88.29,1.2,1.2,0,0,1,.38,1,1.17,1.17,0,0,1-.38,1,1.32,1.32,0,0,1-.88.31,1.35,1.35,0,0,1-.9-.31,1.17,1.17,0,0,1-.38-1,1.2,1.2,0,0,1,.38-1A1.45,1.45,0,0,1,119.86,12.27ZM121,16.56v11.3h-2.22V16.56Z"/><path class="ad05d9fc-e36b-4ae5-ac41-6da5f1163caf" d="M130.15,16.36a4.21,4.21,0,0,1,3,1,4.17,4.17,0,0,1,1.05,3.16v7.36H132v-7c0-1.76-.78-2.64-2.33-2.64a2.61,2.61,0,0,0-2.37,1,5.5,5.5,0,0,0-.66,3v5.7h-2.22V16.56h1.76l.31,1.51h.13a3.31,3.31,0,0,1,1.49-1.3A5.15,5.15,0,0,1,130.15,16.36Z"/><path class="ad05d9fc-e36b-4ae5-ac41-6da5f1163caf" d="M142,16.36a4.67,4.67,0,0,1,3.17.93,3.67,3.67,0,0,1,1.06,2.92v7.65h-1.57l-.44-1.58h-.08a5,5,0,0,1-1.54,1.35,4.75,4.75,0,0,1-2.23.43,3.87,3.87,0,0,1-2.54-.82,3.18,3.18,0,0,1-1-2.59A3,3,0,0,1,138.14,22a7.57,7.57,0,0,1,4-1l1.92-.07v-.62a2.29,2.29,0,0,0-.56-1.75,2.3,2.3,0,0,0-1.59-.52,5.39,5.39,0,0,0-1.66.26,11.3,11.3,0,0,0-1.53.6L138,17.34a9.07,9.07,0,0,1,1.83-.7A8.17,8.17,0,0,1,142,16.36Zm2,6.07-1.51,0a5,5,0,0,0-2.67.65,1.85,1.85,0,0,0-.74,1.55,1.5,1.5,0,0,0,.52,1.28,2.25,2.25,0,0,0,1.37.4,3.24,3.24,0,0,0,2.16-.74,2.7,2.7,0,0,0,.87-2.2Z"/><path class="ad05d9fc-e36b-4ae5-ac41-6da5f1163caf" d="M151.86,27.86h-2.21V11.94h2.21Z"/><path class="ad05d9fc-e36b-4ae5-ac41-6da5f1163caf" d="M167.55,27.86,163,15.14h-.09c0,.29.06.67.08,1.14s0,1,0,1.53,0,1.09,0,1.6v8.45H161v-15h3.22l4.3,12h.08l4.42-12h3.23v15h-2.2V19.29c0-.49,0-1,0-1.51s0-1,.06-1.47,0-.84,0-1.15h-.08l-4.65,12.7Z"/><path class="ad05d9fc-e36b-4ae5-ac41-6da5f1163caf" d="M190,22.2a6.05,6.05,0,0,1-1.44,4.33,5.06,5.06,0,0,1-3.9,1.53,5.27,5.27,0,0,1-2.71-.68,4.66,4.66,0,0,1-1.86-2,6.75,6.75,0,0,1-.68-3.19,6.11,6.11,0,0,1,1.42-4.33,5.09,5.09,0,0,1,3.9-1.51,5.32,5.32,0,0,1,2.73.68,4.69,4.69,0,0,1,1.86,2A6.68,6.68,0,0,1,190,22.2Zm-8.31,0a5.26,5.26,0,0,0,.72,3,3,3,0,0,0,4.59,0,5.26,5.26,0,0,0,.72-3,5.19,5.19,0,0,0-.72-3,2.62,2.62,0,0,0-2.32-1,2.58,2.58,0,0,0-2.28,1A5.28,5.28,0,0,0,181.65,22.2Z"/><path class="ad05d9fc-e36b-4ae5-ac41-6da5f1163caf" d="M196.65,28.06a4.07,4.07,0,0,1-3.29-1.46,6.59,6.59,0,0,1-1.24-4.36,6.66,6.66,0,0,1,1.26-4.4,4.12,4.12,0,0,1,3.31-1.48,4.07,4.07,0,0,1,2.09.48A4.18,4.18,0,0,1,200.1,18h.13c0-.2-.07-.48-.11-.86a9.45,9.45,0,0,1-.06-1V11.94h2.22V27.86h-1.74l-.38-1.51h-.1a4.1,4.1,0,0,1-1.3,1.21A3.93,3.93,0,0,1,196.65,28.06Zm.52-1.82a2.65,2.65,0,0,0,2.29-.9,4.69,4.69,0,0,0,.68-2.74v-.34a5.92,5.92,0,0,0-.63-3,2.55,2.55,0,0,0-2.36-1.05,2.26,2.26,0,0,0-2.05,1.09,5.59,5.59,0,0,0-.69,3,5.28,5.28,0,0,0,.69,2.94A2.33,2.33,0,0,0,197.17,26.24Z"/><path class="ad05d9fc-e36b-4ae5-ac41-6da5f1163caf" d="M210.13,16.36a4.72,4.72,0,0,1,3.18.93,3.7,3.7,0,0,1,1.05,2.92v7.65h-1.57l-.44-1.58h-.08a4.88,4.88,0,0,1-1.54,1.35,4.75,4.75,0,0,1-2.23.43,3.85,3.85,0,0,1-2.53-.82,3.18,3.18,0,0,1-1-2.59A3,3,0,0,1,206.27,22a7.57,7.57,0,0,1,4-1l1.93-.07v-.62a2.26,2.26,0,0,0-.57-1.75,2.3,2.3,0,0,0-1.59-.52,5.37,5.37,0,0,0-1.65.26,10.35,10.35,0,0,0-1.53.6l-.72-1.61a9.17,9.17,0,0,1,1.84-.7A8.1,8.1,0,0,1,210.13,16.36Zm2,6.07-1.51,0a5,5,0,0,0-2.67.65,1.83,1.83,0,0,0-.75,1.55,1.51,1.51,0,0,0,.53,1.28,2.22,2.22,0,0,0,1.36.4,3.26,3.26,0,0,0,2.17-.74,2.7,2.7,0,0,0,.87-2.2Z"/><path class="ad05d9fc-e36b-4ae5-ac41-6da5f1163caf" d="M220,27.86h-2.22V11.94H220Z"/></svg>