<svg id="f9fee102-80b8-4496-881f-8ea6412ed2e3" data-name="圖層 1" xmlns="http://www.w3.org/2000/svg" viewBox="0 0 1280 640"><defs><style>.\38 d3fc613-29c0-42a4-9f68-e70126f83c4a{fill:#fff;}.f45e3ff7-9d09-4565-9023-3c753b1b1615{fill:none;stroke:#00bf7a;stroke-miterlimit:10;}.e3cc3a33-702c-4cc8-9120-696c4dc1e939{fill:#00bf7a;}.be8fa0a5-c690-490c-971a-387e3f4c3ffe{fill:#214b62;}.\31 6421ef2-2e83-4ec3-84f2-cde6dab92a42{fill:#5ec191;}.\34 9acf24a-f9e9-499b-b736-9ead4fd35f1d{fill:#418476;}</style></defs><title>未命名-2</title><path class="8d3fc613-29c0-42a4-9f68-e70126f83c4a" d="M131.84,425.11l-2.28-6.18h-8.28L119,425.11h-3.36l8.13-21.51h3.36l8.1,21.51Zm-3.18-9-2.16-6q-.12-.33-.33-1t-.42-1.38q-.21-.72-.33-1.17-.24.93-.54,2t-.48,1.56l-2.16,6Z"/><path class="8d3fc613-29c0-42a4-9f68-e70126f83c4a" d="M151.37,422.83a7.12,7.12,0,0,0,2.43-.39v2.4a5.89,5.89,0,0,1-1.38.41,9.31,9.31,0,0,1-1.74.16,6.32,6.32,0,0,1-2.42-.45,3.61,3.61,0,0,1-1.75-1.56,6.06,6.06,0,0,1-.66-3.09v-8.94H143.6v-1.44l2.37-1.2,1.11-3.42H149v3.63h4.62v2.43H149v8.88a2.62,2.62,0,0,0,.64,1.95A2.33,2.33,0,0,0,151.37,422.83Z"/><path class="8d3fc613-29c0-42a4-9f68-e70126f83c4a" d="M158.66,402.79a2,2,0,0,1,1.26.42,1.68,1.68,0,0,1,.54,1.41,1.7,1.7,0,0,1-.54,1.4,1.94,1.94,0,0,1-1.26.43,2,2,0,0,1-1.29-.43,1.7,1.7,0,0,1-.54-1.4,1.68,1.68,0,0,1,.54-1.41A2,2,0,0,1,158.66,402.79Zm1.56,6.15v16.17H157V408.94Z"/><path class="8d3fc613-29c0-42a4-9f68-e70126f83c4a" d="M173.39,408.64a6.07,6.07,0,0,1,4.32,1.41q1.5,1.41,1.5,4.53v10.53h-3.15V415q0-3.78-3.33-3.78a3.74,3.74,0,0,0-3.41,1.47,7.85,7.85,0,0,0-.94,4.23v8.16H165.2V408.94h2.52l.45,2.16h.18a4.67,4.67,0,0,1,2.14-1.86A7.14,7.14,0,0,1,173.39,408.64Z"/><path class="8d3fc613-29c0-42a4-9f68-e70126f83c4a" d="M181.64,408.94h3.42l3.36,9.18q.39,1,.69,2a11,11,0,0,1,.42,1.92h.12a18.79,18.79,0,0,1,.46-1.83c.21-.7.45-1.41.71-2.13l3.18-9.15h3.42l-6.93,18.36a9.29,9.29,0,0,1-2.33,3.68,5.38,5.38,0,0,1-3.79,1.33,9.62,9.62,0,0,1-1.29-.07c-.36-.05-.67-.11-.93-.17v-2.52l.78.12a8,8,0,0,0,1,.06,3.09,3.09,0,0,0,2.22-.79,5.43,5.43,0,0,0,1.32-2.09l.66-1.74Z"/><path class="8d3fc613-29c0-42a4-9f68-e70126f83c4a" d="M202,421.63l.21.33a30.67,30.67,0,0,1-1.11,3.5c-.48,1.27-1,2.44-1.47,3.52h-2.31c.28-1.16.56-2.41.84-3.76s.5-2.55.66-3.59Z"/><path class="8d3fc613-29c0-42a4-9f68-e70126f83c4a" d="M222.68,408.64a9.74,9.74,0,0,1,1.77.15l-.33,3a6.2,6.2,0,0,0-1.62-.21,4.51,4.51,0,0,0-4,2.33,5.35,5.35,0,0,0-.64,2.71v8.52H214.7V408.94h2.52l.42,2.88h.12a7.46,7.46,0,0,1,2-2.23A4.72,4.72,0,0,1,222.68,408.64Z"/><path class="8d3fc613-29c0-42a4-9f68-e70126f83c4a" d="M233.21,408.64a6.51,6.51,0,0,1,5,2,7.53,7.53,0,0,1,1.83,5.35v1.74H229.19a5.55,5.55,0,0,0,1.3,3.81,4.58,4.58,0,0,0,3.5,1.32,12.18,12.18,0,0,0,2.77-.28,14.37,14.37,0,0,0,2.51-.86v2.64a11.32,11.32,0,0,1-2.46.83,14.72,14.72,0,0,1-2.94.25,8.89,8.89,0,0,1-4.14-.93,6.62,6.62,0,0,1-2.81-2.76,9.38,9.38,0,0,1-1-4.56,10.54,10.54,0,0,1,.91-4.62,6.74,6.74,0,0,1,2.55-2.89A7.18,7.18,0,0,1,233.21,408.64Zm0,2.46a3.59,3.59,0,0,0-2.75,1.11,5.14,5.14,0,0,0-1.21,3.15h7.62a5.13,5.13,0,0,0-.92-3.07A3.2,3.2,0,0,0,233.21,411.1Z"/><path class="8d3fc613-29c0-42a4-9f68-e70126f83c4a" d="M252.2,408.64a6.07,6.07,0,0,1,4.32,1.41q1.5,1.41,1.5,4.53v10.53h-3.15V415q0-3.78-3.33-3.78a3.74,3.74,0,0,0-3.41,1.47,7.85,7.85,0,0,0-.94,4.23v8.16H244V408.94h2.52l.45,2.16h.18a4.67,4.67,0,0,1,2.14-1.86A7.14,7.14,0,0,1,252.2,408.64Z"/><path class="8d3fc613-29c0-42a4-9f68-e70126f83c4a" d="M268.46,425.41a5.85,5.85,0,0,1-4.71-2.1q-1.77-2.1-1.77-6.24t1.8-6.3a5.9,5.9,0,0,1,4.74-2.13,5.84,5.84,0,0,1,3,.69,6.17,6.17,0,0,1,1.89,1.68h.18q-.06-.42-.15-1.23a13,13,0,0,1-.09-1.41v-6.06h3.18v22.8H274L273.5,423h-.15a6,6,0,0,1-1.86,1.74A5.71,5.71,0,0,1,268.46,425.41Zm.75-2.61a3.8,3.8,0,0,0,3.28-1.29,6.79,6.79,0,0,0,1-3.93v-.48a8.43,8.43,0,0,0-.92-4.35,3.62,3.62,0,0,0-3.37-1.5,3.26,3.26,0,0,0-2.94,1.56,8,8,0,0,0-1,4.32,7.49,7.49,0,0,0,1,4.2A3.34,3.34,0,0,0,269.21,422.8Z"/><path class="8d3fc613-29c0-42a4-9f68-e70126f83c4a" d="M287.87,408.64a6.51,6.51,0,0,1,5,2,7.53,7.53,0,0,1,1.83,5.35v1.74H283.85a5.55,5.55,0,0,0,1.3,3.81,4.58,4.58,0,0,0,3.5,1.32,12.18,12.18,0,0,0,2.77-.28,14.37,14.37,0,0,0,2.51-.86v2.64a11.32,11.32,0,0,1-2.46.83,14.72,14.72,0,0,1-2.94.25,8.89,8.89,0,0,1-4.14-.93,6.62,6.62,0,0,1-2.81-2.76,9.38,9.38,0,0,1-1-4.56,10.54,10.54,0,0,1,.91-4.62,6.74,6.74,0,0,1,2.55-2.89A7.18,7.18,0,0,1,287.87,408.64Zm0,2.46a3.59,3.59,0,0,0-2.75,1.11,5.14,5.14,0,0,0-1.21,3.15h7.62a5.13,5.13,0,0,0-.92-3.07A3.2,3.2,0,0,0,287.87,411.1Z"/><path class="8d3fc613-29c0-42a4-9f68-e70126f83c4a" d="M306.65,408.64a9.74,9.74,0,0,1,1.77.15l-.33,3a6.2,6.2,0,0,0-1.62-.21,4.51,4.51,0,0,0-4,2.33,5.35,5.35,0,0,0-.64,2.71v8.52h-3.18V408.94h2.52l.42,2.88h.12a7.46,7.46,0,0,1,2-2.23A4.72,4.72,0,0,1,306.65,408.64Z"/><path class="8d3fc613-29c0-42a4-9f68-e70126f83c4a" d="M314.6,425.11h-3.18v-22.8h3.18Z"/><path class="8d3fc613-29c0-42a4-9f68-e70126f83c4a" d="M325.93,408.64a6.52,6.52,0,0,1,5,2,7.53,7.53,0,0,1,1.83,5.35v1.74H321.92a5.55,5.55,0,0,0,1.3,3.81,4.58,4.58,0,0,0,3.5,1.32,12.24,12.24,0,0,0,2.77-.28,14.37,14.37,0,0,0,2.51-.86v2.64a11.7,11.7,0,0,1-2.46.83,14.75,14.75,0,0,1-3,.25,8.88,8.88,0,0,1-4.13-.93,6.56,6.56,0,0,1-2.81-2.76,9.38,9.38,0,0,1-1-4.56,10.54,10.54,0,0,1,.91-4.62,6.74,6.74,0,0,1,2.55-2.89A7.17,7.17,0,0,1,325.93,408.64Zm0,2.46a3.58,3.58,0,0,0-2.74,1.11,5.08,5.08,0,0,0-1.21,3.15h7.61a5.06,5.06,0,0,0-.91-3.07A3.21,3.21,0,0,0,325.93,411.1Z"/><path class="8d3fc613-29c0-42a4-9f68-e70126f83c4a" d="M347.48,420.55a4.18,4.18,0,0,1-1.73,3.63,8.23,8.23,0,0,1-4.84,1.23,15.32,15.32,0,0,1-2.93-.24,8.61,8.61,0,0,1-2.23-.75v-2.79a15.12,15.12,0,0,0,2.47.92,10.1,10.1,0,0,0,2.78.4,4.53,4.53,0,0,0,2.59-.57,1.79,1.79,0,0,0,.8-1.53,1.6,1.6,0,0,0-.31-1A3.24,3.24,0,0,0,343,419a18.86,18.86,0,0,0-2.41-1.07,17.26,17.26,0,0,1-2.63-1.23,4.85,4.85,0,0,1-1.63-1.5,3.92,3.92,0,0,1-.57-2.19,3.63,3.63,0,0,1,1.69-3.22,8,8,0,0,1,4.49-1.13,12.31,12.31,0,0,1,2.77.3,14.27,14.27,0,0,1,2.54.84l-1,2.43a17.82,17.82,0,0,0-2.16-.76,8.32,8.32,0,0,0-2.25-.32q-2.94,0-2.94,1.71a1.51,1.51,0,0,0,.34,1,3.63,3.63,0,0,0,1.2.84c.57.28,1.37.62,2.39,1a18.3,18.3,0,0,1,2.53,1.19,4.74,4.74,0,0,1,1.64,1.48A3.92,3.92,0,0,1,347.48,420.55Z"/><path class="8d3fc613-29c0-42a4-9f68-e70126f83c4a" d="M362,420.55a4.18,4.18,0,0,1-1.73,3.63,8.26,8.26,0,0,1-4.85,1.23,15.28,15.28,0,0,1-2.92-.24,8.81,8.81,0,0,1-2.24-.75v-2.79a15.62,15.62,0,0,0,2.48.92,10.08,10.08,0,0,0,2.77.4,4.55,4.55,0,0,0,2.6-.57,1.79,1.79,0,0,0,.8-1.53,1.6,1.6,0,0,0-.31-1,3.24,3.24,0,0,0-1.12-.9,18.86,18.86,0,0,0-2.41-1.07,17.26,17.26,0,0,1-2.63-1.23,4.76,4.76,0,0,1-1.63-1.5,3.84,3.84,0,0,1-.57-2.19,3.63,3.63,0,0,1,1.69-3.22,8,8,0,0,1,4.49-1.13,12.31,12.31,0,0,1,2.77.3,14.27,14.27,0,0,1,2.54.84l-1.06,2.43a17.24,17.24,0,0,0-2.16-.76,8.21,8.21,0,0,0-2.25-.32c-1.95,0-2.93.57-2.93,1.71a1.51,1.51,0,0,0,.34,1,3.63,3.63,0,0,0,1.2.84c.57.28,1.37.62,2.38,1a17.92,17.92,0,0,1,2.54,1.19,4.62,4.62,0,0,1,1.63,1.48A3.84,3.84,0,0,1,362,420.55Z"/><path class="8d3fc613-29c0-42a4-9f68-e70126f83c4a" d="M369.11,421.63l.21.33a30.67,30.67,0,0,1-1.11,3.5c-.48,1.27-1,2.44-1.47,3.52h-2.32c.29-1.16.57-2.41.85-3.76s.49-2.55.65-3.59Z"/><path class="8d3fc613-29c0-42a4-9f68-e70126f83c4a" d="M399.89,408.64a5.52,5.52,0,0,1,4.11,1.41c.92.94,1.37,2.45,1.37,4.53v10.53h-3.18V415q0-3.75-3-3.75a3.49,3.49,0,0,0-3.09,1.34,6.56,6.56,0,0,0-.93,3.82v8.7H392V415q0-3.75-3.07-3.75a3.32,3.32,0,0,0-3.13,1.47,8.51,8.51,0,0,0-.86,4.23v8.16h-3.18V408.94h2.52l.46,2.16h.18a4.59,4.59,0,0,1,2-1.86,6.29,6.29,0,0,1,2.72-.6q3.7,0,4.92,2.61h.24a4.77,4.77,0,0,1,2.16-2A6.76,6.76,0,0,1,399.89,408.64Z"/><path class="8d3fc613-29c0-42a4-9f68-e70126f83c4a" d="M424.49,417a8.74,8.74,0,0,1-2.07,6.21,7.35,7.35,0,0,1-5.59,2.19,7.63,7.63,0,0,1-3.88-1,6.82,6.82,0,0,1-2.67-2.85,9.84,9.84,0,0,1-1-4.58,8.7,8.7,0,0,1,2-6.19,7.3,7.3,0,0,1,5.58-2.18,7.71,7.71,0,0,1,3.92,1,6.83,6.83,0,0,1,2.67,2.83A9.73,9.73,0,0,1,424.49,417Zm-11.91,0a7.54,7.54,0,0,0,1,4.26,4.29,4.29,0,0,0,6.57,0,7.54,7.54,0,0,0,1-4.26,7.36,7.36,0,0,0-1-4.24,3.77,3.77,0,0,0-3.32-1.49,3.69,3.69,0,0,0-3.27,1.49A7.52,7.52,0,0,0,412.58,417Z"/><path class="8d3fc613-29c0-42a4-9f68-e70126f83c4a" d="M431.68,402.31v5.49c0,.64,0,1.27,0,1.88s-.07,1.07-.11,1.39h.15a5.69,5.69,0,0,1,1.86-1.71,6.54,6.54,0,0,1,7.73,1.41q1.78,2.1,1.78,6.24t-1.8,6.29a6.57,6.57,0,0,1-7.72,1.44,6.1,6.1,0,0,1-1.85-1.61h-.24l-.6,2H428.5v-22.8Zm4.14,8.94a3.56,3.56,0,0,0-3.21,1.37,7.86,7.86,0,0,0-.93,4.18V417a8.45,8.45,0,0,0,.89,4.28,3.52,3.52,0,0,0,3.31,1.48,3.26,3.26,0,0,0,2.93-1.5,7.94,7.94,0,0,0,1-4.32Q439.78,411.25,435.82,411.25Z"/><path class="8d3fc613-29c0-42a4-9f68-e70126f83c4a" d="M448.72,402.79a2,2,0,0,1,1.26.42,1.68,1.68,0,0,1,.54,1.41A1.7,1.7,0,0,1,450,406a1.94,1.94,0,0,1-1.26.43,2,2,0,0,1-1.29-.43,1.7,1.7,0,0,1-.54-1.4,1.68,1.68,0,0,1,.54-1.41A2,2,0,0,1,448.72,402.79Zm1.56,6.15v16.17H447.1V408.94Z"/><path class="8d3fc613-29c0-42a4-9f68-e70126f83c4a" d="M458.44,425.11h-3.18v-22.8h3.18Z"/><path class="8d3fc613-29c0-42a4-9f68-e70126f83c4a" d="M469.78,408.64a6.51,6.51,0,0,1,5,2,7.53,7.53,0,0,1,1.83,5.35v1.74H465.76a5.55,5.55,0,0,0,1.31,3.81,4.56,4.56,0,0,0,3.49,1.32,12.27,12.27,0,0,0,2.78-.28,14.28,14.28,0,0,0,2.5-.86v2.64a11.32,11.32,0,0,1-2.46.83,14.72,14.72,0,0,1-2.94.25,8.89,8.89,0,0,1-4.14-.93,6.6,6.6,0,0,1-2.8-2.76,9.38,9.38,0,0,1-1-4.56,10.54,10.54,0,0,1,.92-4.62,6.74,6.74,0,0,1,2.55-2.89A7.14,7.14,0,0,1,469.78,408.64Zm0,2.46a3.56,3.56,0,0,0-2.74,1.11,5.14,5.14,0,0,0-1.22,3.15h7.62a5.13,5.13,0,0,0-.91-3.07A3.21,3.21,0,0,0,469.78,411.1Z"/><path class="8d3fc613-29c0-42a4-9f68-e70126f83c4a" d="M479.2,418.42v-2.7h7.44v2.7Z"/><path class="8d3fc613-29c0-42a4-9f68-e70126f83c4a" d="M498.13,411.37h-4v13.74H491V411.37h-2.73v-1.5l2.73-1v-1c0-2.06.48-3.52,1.43-4.39a5.66,5.66,0,0,1,4-1.31,9.49,9.49,0,0,1,1.92.18,11.7,11.7,0,0,1,1.47.39l-.81,2.43c-.34-.1-.72-.19-1.14-.28a6.14,6.14,0,0,0-1.29-.14q-2.37,0-2.37,3.15v1.05h4Z"/><path class="8d3fc613-29c0-42a4-9f68-e70126f83c4a" d="M508.93,408.64a9.74,9.74,0,0,1,1.77.15l-.33,3a6.2,6.2,0,0,0-1.62-.21,4.48,4.48,0,0,0-4,2.33,5.36,5.36,0,0,0-.65,2.71v8.52H501V408.94h2.52l.42,2.88H504a7.46,7.46,0,0,1,2-2.23A4.72,4.72,0,0,1,508.93,408.64Z"/><path class="8d3fc613-29c0-42a4-9f68-e70126f83c4a" d="M515.32,402.79a2,2,0,0,1,1.26.42,1.68,1.68,0,0,1,.54,1.41,1.7,1.7,0,0,1-.54,1.4,1.94,1.94,0,0,1-1.26.43A2,2,0,0,1,514,406a1.7,1.7,0,0,1-.54-1.4,1.68,1.68,0,0,1,.54-1.41A2,2,0,0,1,515.32,402.79Zm1.56,6.15v16.17H513.7V408.94Z"/><path class="8d3fc613-29c0-42a4-9f68-e70126f83c4a" d="M528.22,408.64a6.51,6.51,0,0,1,5,2,7.53,7.53,0,0,1,1.83,5.35v1.74H524.2a5.55,5.55,0,0,0,1.31,3.81,4.56,4.56,0,0,0,3.49,1.32,12.27,12.27,0,0,0,2.78-.28,14.28,14.28,0,0,0,2.5-.86v2.64a11.32,11.32,0,0,1-2.46.83,14.72,14.72,0,0,1-2.94.25,8.89,8.89,0,0,1-4.14-.93,6.6,6.6,0,0,1-2.8-2.76,9.38,9.38,0,0,1-1-4.56,10.54,10.54,0,0,1,.92-4.62,6.74,6.74,0,0,1,2.55-2.89A7.14,7.14,0,0,1,528.22,408.64Zm0,2.46a3.56,3.56,0,0,0-2.74,1.11,5.14,5.14,0,0,0-1.22,3.15h7.62a5.13,5.13,0,0,0-.91-3.07A3.21,3.21,0,0,0,528.22,411.1Z"/><path class="8d3fc613-29c0-42a4-9f68-e70126f83c4a" d="M547.21,408.64a6.07,6.07,0,0,1,4.32,1.41q1.5,1.41,1.5,4.53v10.53h-3.15V415q0-3.78-3.33-3.78a3.72,3.72,0,0,0-3.4,1.47,7.84,7.84,0,0,0-.95,4.23v8.16H539V408.94h2.52l.45,2.16h.18a4.69,4.69,0,0,1,2.15-1.86A7.09,7.09,0,0,1,547.21,408.64Z"/><path class="8d3fc613-29c0-42a4-9f68-e70126f83c4a" d="M563.47,425.41a5.85,5.85,0,0,1-4.71-2.1q-1.77-2.1-1.77-6.24t1.8-6.3a5.9,5.9,0,0,1,4.74-2.13,5.84,5.84,0,0,1,3,.69,6.17,6.17,0,0,1,1.89,1.68h.18q-.06-.42-.15-1.23a13,13,0,0,1-.09-1.41v-6.06h3.18v22.8h-2.49l-.54-2.16h-.15a6,6,0,0,1-1.86,1.74A5.71,5.71,0,0,1,563.47,425.41Zm.75-2.61a3.82,3.82,0,0,0,3.29-1.29,6.79,6.79,0,0,0,1-3.93v-.48a8.44,8.44,0,0,0-.91-4.35,3.64,3.64,0,0,0-3.38-1.5,3.26,3.26,0,0,0-2.94,1.56,8,8,0,0,0-1,4.32,7.49,7.49,0,0,0,1,4.2A3.34,3.34,0,0,0,564.22,422.8Z"/><path class="8d3fc613-29c0-42a4-9f68-e70126f83c4a" d="M579.7,425.11h-3.18v-22.8h3.18Z"/><path class="8d3fc613-29c0-42a4-9f68-e70126f83c4a" d="M582.22,408.94h3.42l3.36,9.18q.39,1,.69,2a11,11,0,0,1,.42,1.92h.12c.1-.52.26-1.13.47-1.83s.44-1.41.7-2.13l3.18-9.15H598l-6.93,18.36a9.27,9.27,0,0,1-2.32,3.68,5.4,5.4,0,0,1-3.8,1.33,9.62,9.62,0,0,1-1.29-.07c-.36-.05-.67-.11-.93-.17v-2.52l.78.12a8,8,0,0,0,1,.06,3.09,3.09,0,0,0,2.22-.79,5.43,5.43,0,0,0,1.32-2.09l.66-1.74Z"/><path class="8d3fc613-29c0-42a4-9f68-e70126f83c4a" d="M602.62,421.63l.21.33a30.67,30.67,0,0,1-1.11,3.5c-.48,1.27-1,2.44-1.47,3.52h-2.31c.28-1.16.56-2.41.84-3.76s.5-2.55.66-3.59Z"/><path class="8d3fc613-29c0-42a4-9f68-e70126f83c4a" d="M623.17,411.37h-4v13.74H616V411.37h-2.73v-1.5l2.73-1v-1c0-2.06.48-3.52,1.42-4.39a5.7,5.7,0,0,1,4-1.31,9.49,9.49,0,0,1,1.92.18,11.7,11.7,0,0,1,1.47.39l-.81,2.43c-.34-.1-.72-.19-1.14-.28a6.14,6.14,0,0,0-1.29-.14q-2.37,0-2.37,3.15v1.05h4Z"/><path class="8d3fc613-29c0-42a4-9f68-e70126f83c4a" d="M632.35,408.64a6.51,6.51,0,0,1,5,2,7.53,7.53,0,0,1,1.83,5.35v1.74H628.33a5.55,5.55,0,0,0,1.31,3.81,4.56,4.56,0,0,0,3.49,1.32,12.33,12.33,0,0,0,2.78-.28,14.28,14.28,0,0,0,2.5-.86v2.64a11.32,11.32,0,0,1-2.46.83,14.72,14.72,0,0,1-2.94.25,8.89,8.89,0,0,1-4.14-.93,6.6,6.6,0,0,1-2.8-2.76,9.38,9.38,0,0,1-1-4.56,10.4,10.4,0,0,1,.92-4.62,6.61,6.61,0,0,1,2.55-2.89A7.14,7.14,0,0,1,632.35,408.64Zm0,2.46a3.56,3.56,0,0,0-2.74,1.11,5.14,5.14,0,0,0-1.22,3.15H636a5.13,5.13,0,0,0-.92-3.07A3.2,3.2,0,0,0,632.35,411.1Z"/><path class="8d3fc613-29c0-42a4-9f68-e70126f83c4a" d="M649.42,408.64A6.72,6.72,0,0,1,654,410a5.29,5.29,0,0,1,1.51,4.18v10.95h-2.25l-.63-2.25h-.12a7.24,7.24,0,0,1-2.2,1.94,6.93,6.93,0,0,1-3.2.61,5.52,5.52,0,0,1-3.63-1.18,4.53,4.53,0,0,1-1.44-3.71,4.25,4.25,0,0,1,1.88-3.76,10.87,10.87,0,0,1,5.71-1.4l2.76-.09v-.9a2.76,2.76,0,0,0-3.09-3.24,7.82,7.82,0,0,0-2.37.36,16.1,16.1,0,0,0-2.19.87l-1-2.31a13,13,0,0,1,2.63-1A11.71,11.71,0,0,1,649.42,408.64Zm2.91,8.7-2.16.06a7.17,7.17,0,0,0-3.83.93,2.66,2.66,0,0,0-1.06,2.22,2.15,2.15,0,0,0,.75,1.83,3.14,3.14,0,0,0,2,.57,4.64,4.64,0,0,0,3.1-1.05,3.86,3.86,0,0,0,1.25-3.15Z"/><path class="8d3fc613-29c0-42a4-9f68-e70126f83c4a" d="M666.19,422.83a7.12,7.12,0,0,0,2.43-.39v2.4a5.89,5.89,0,0,1-1.38.41,9.31,9.31,0,0,1-1.74.16,6.36,6.36,0,0,1-2.42-.45,3.61,3.61,0,0,1-1.75-1.56,6.06,6.06,0,0,1-.66-3.09v-8.94h-2.25v-1.44l2.37-1.2,1.11-3.42h2v3.63h4.62v2.43h-4.62v8.88a2.62,2.62,0,0,0,.65,1.95A2.29,2.29,0,0,0,666.19,422.83Z"/><path class="8d3fc613-29c0-42a4-9f68-e70126f83c4a" d="M685.78,408.94v16.17h-2.55l-.45-2.13h-.15a4.59,4.59,0,0,1-2.16,1.85,7.38,7.38,0,0,1-2.91.58,6.16,6.16,0,0,1-4.35-1.39c-1-.93-1.5-2.43-1.5-4.49V408.94h3.21v10.11a4.26,4.26,0,0,0,.79,2.82,3.11,3.11,0,0,0,2.48.93,3.82,3.82,0,0,0,3.45-1.45,7.68,7.68,0,0,0,1-4.22v-8.19Z"/><path class="8d3fc613-29c0-42a4-9f68-e70126f83c4a" d="M698.74,408.64a9.74,9.74,0,0,1,1.77.15l-.33,3a6.2,6.2,0,0,0-1.62-.21,4.51,4.51,0,0,0-4,2.33,5.35,5.35,0,0,0-.64,2.71v8.52h-3.18V408.94h2.52l.42,2.88h.12a7.46,7.46,0,0,1,2-2.23A4.72,4.72,0,0,1,698.74,408.64Z"/><path class="8d3fc613-29c0-42a4-9f68-e70126f83c4a" d="M709.27,408.64a6.51,6.51,0,0,1,5,2,7.53,7.53,0,0,1,1.83,5.35v1.74H705.25a5.55,5.55,0,0,0,1.3,3.81,4.58,4.58,0,0,0,3.5,1.32,12.33,12.33,0,0,0,2.78-.28,14.56,14.56,0,0,0,2.5-.86v2.64a11.32,11.32,0,0,1-2.46.83,14.72,14.72,0,0,1-2.94.25,8.89,8.89,0,0,1-4.14-.93,6.54,6.54,0,0,1-2.8-2.76,9.27,9.27,0,0,1-1-4.56,10.54,10.54,0,0,1,.91-4.62,6.74,6.74,0,0,1,2.55-2.89A7.18,7.18,0,0,1,709.27,408.64Zm0,2.46a3.59,3.59,0,0,0-2.75,1.11,5.14,5.14,0,0,0-1.21,3.15h7.62a5.13,5.13,0,0,0-.92-3.07A3.2,3.2,0,0,0,709.27,411.1Z"/><path class="8d3fc613-29c0-42a4-9f68-e70126f83c4a" d="M718.69,418.42v-2.7h7.44v2.7Z"/><path class="8d3fc613-29c0-42a4-9f68-e70126f83c4a" d="M737.71,408.64a9.74,9.74,0,0,1,1.77.15l-.33,3a6.2,6.2,0,0,0-1.62-.21,4.51,4.51,0,0,0-4,2.33,5.35,5.35,0,0,0-.64,2.71v8.52h-3.18V408.94h2.52l.42,2.88h.12a7.46,7.46,0,0,1,2-2.23A4.72,4.72,0,0,1,737.71,408.64Z"/><path class="8d3fc613-29c0-42a4-9f68-e70126f83c4a" d="M744.1,402.79a2,2,0,0,1,1.26.42,1.68,1.68,0,0,1,.54,1.41,1.7,1.7,0,0,1-.54,1.4,1.94,1.94,0,0,1-1.26.43,2,2,0,0,1-1.29-.43,1.7,1.7,0,0,1-.54-1.4,1.68,1.68,0,0,1,.54-1.41A2,2,0,0,1,744.1,402.79Zm1.56,6.15v16.17h-3.18V408.94Z"/><path class="8d3fc613-29c0-42a4-9f68-e70126f83c4a" d="M757.15,425.41a7.39,7.39,0,0,1-5.4-2q-2-2-2-6.29a10.33,10.33,0,0,1,1-4.86,6.28,6.28,0,0,1,2.73-2.74,8.61,8.61,0,0,1,4-.89,11.35,11.35,0,0,1,2.53.27,8.87,8.87,0,0,1,2,.66l-1,2.58c-.56-.2-1.15-.38-1.77-.55a6.81,6.81,0,0,0-1.8-.26q-4.38,0-4.38,5.76a6.92,6.92,0,0,0,1.08,4.2,3.73,3.73,0,0,0,3.18,1.44,8.63,8.63,0,0,0,2.37-.3,9.18,9.18,0,0,0,1.92-.78v2.76a6.79,6.79,0,0,1-1.89.75A11,11,0,0,1,757.15,425.41Z"/><path class="8d3fc613-29c0-42a4-9f68-e70126f83c4a" d="M768.52,402.31v6.09q0,.75-.06,1.5t-.12,1.23h.21a4.87,4.87,0,0,1,2.08-1.84,6.59,6.59,0,0,1,2.84-.62,6.16,6.16,0,0,1,4.36,1.41,5.89,5.89,0,0,1,1.52,4.5v10.53H776.2V415q0-3.78-3.33-3.78a3.7,3.7,0,0,0-3.42,1.5,8,8,0,0,0-.93,4.23v8.13h-3.18v-22.8Z"/><path class="8d3fc613-29c0-42a4-9f68-e70126f83c4a" d="M810.16,408.64a5.51,5.51,0,0,1,4.11,1.41q1.38,1.41,1.38,4.53v10.53h-3.18V415q0-3.75-3-3.75a3.5,3.5,0,0,0-3.09,1.34,6.63,6.63,0,0,0-.93,3.82v8.7h-3.15V415q0-3.75-3.06-3.75a3.32,3.32,0,0,0-3.14,1.47,8.52,8.52,0,0,0-.85,4.23v8.16H792V408.94h2.52l.45,2.16h.18a4.59,4.59,0,0,1,2-1.86,6.32,6.32,0,0,1,2.72-.6q3.72,0,4.92,2.61h.24a4.82,4.82,0,0,1,2.16-2A6.8,6.8,0,0,1,810.16,408.64Z"/><path class="8d3fc613-29c0-42a4-9f68-e70126f83c4a" d="M834.76,417a8.69,8.69,0,0,1-2.07,6.21,7.31,7.31,0,0,1-5.58,2.19,7.67,7.67,0,0,1-3.89-1,6.82,6.82,0,0,1-2.67-2.85,9.84,9.84,0,0,1-1-4.58,8.7,8.7,0,0,1,2-6.19,7.28,7.28,0,0,1,5.58-2.18,7.69,7.69,0,0,1,3.91,1,6.83,6.83,0,0,1,2.67,2.83A9.73,9.73,0,0,1,834.76,417Zm-11.91,0a7.54,7.54,0,0,0,1,4.26,4.29,4.29,0,0,0,6.57,0,7.54,7.54,0,0,0,1-4.26,7.35,7.35,0,0,0-1-4.24,3.75,3.75,0,0,0-3.31-1.49,3.69,3.69,0,0,0-3.27,1.49A7.44,7.44,0,0,0,822.85,417Z"/><path class="8d3fc613-29c0-42a4-9f68-e70126f83c4a" d="M844.33,425.41a5.85,5.85,0,0,1-4.71-2.1q-1.77-2.1-1.77-6.24t1.8-6.3a5.9,5.9,0,0,1,4.74-2.13,5.84,5.84,0,0,1,3,.69,6.17,6.17,0,0,1,1.89,1.68h.18q-.06-.42-.15-1.23a13,13,0,0,1-.09-1.41v-6.06h3.18v22.8h-2.49l-.54-2.16h-.15a6,6,0,0,1-1.86,1.74A5.71,5.71,0,0,1,844.33,425.41Zm.75-2.61a3.8,3.8,0,0,0,3.28-1.29,6.79,6.79,0,0,0,1-3.93v-.48a8.43,8.43,0,0,0-.92-4.35,3.62,3.62,0,0,0-3.37-1.5,3.26,3.26,0,0,0-2.94,1.56,8,8,0,0,0-1,4.32,7.49,7.49,0,0,0,1,4.2A3.34,3.34,0,0,0,845.08,422.8Z"/><path class="8d3fc613-29c0-42a4-9f68-e70126f83c4a" d="M863.65,408.64a6.69,6.69,0,0,1,4.54,1.34,5.29,5.29,0,0,1,1.52,4.18v10.95h-2.25l-.63-2.25h-.12a7.26,7.26,0,0,1-2.21,1.94,6.85,6.85,0,0,1-3.19.61,5.52,5.52,0,0,1-3.63-1.18,4.53,4.53,0,0,1-1.44-3.71,4.25,4.25,0,0,1,1.87-3.76,10.91,10.91,0,0,1,5.72-1.4l2.76-.09v-.9a2.76,2.76,0,0,0-3.09-3.24,7.82,7.82,0,0,0-2.37.36,16.1,16.1,0,0,0-2.19.87l-1-2.31a12.9,12.9,0,0,1,2.62-1A11.79,11.79,0,0,1,863.65,408.64Zm2.91,8.7-2.16.06a7.14,7.14,0,0,0-3.83.93,2.63,2.63,0,0,0-1.06,2.22,2.15,2.15,0,0,0,.75,1.83,3.14,3.14,0,0,0,2,.57,4.64,4.64,0,0,0,3.1-1.05,3.89,3.89,0,0,0,1.25-3.15Z"/><path class="8d3fc613-29c0-42a4-9f68-e70126f83c4a" d="M877.78,425.11H874.6v-22.8h3.18Z"/><path class="8d3fc613-29c0-42a4-9f68-e70126f83c4a" d="M897.07,425.41a7.39,7.39,0,0,1-5.4-2q-2-2-2-6.29a10.33,10.33,0,0,1,1-4.86,6.28,6.28,0,0,1,2.73-2.74,8.59,8.59,0,0,1,4-.89,11.35,11.35,0,0,1,2.53.27,8.87,8.87,0,0,1,2,.66l-1,2.58c-.56-.2-1.15-.38-1.77-.55a6.81,6.81,0,0,0-1.8-.26q-4.38,0-4.38,5.76a6.92,6.92,0,0,0,1.08,4.2,3.71,3.71,0,0,0,3.18,1.44,8.63,8.63,0,0,0,2.37-.3,9.18,9.18,0,0,0,1.92-.78v2.76a6.79,6.79,0,0,1-1.89.75A11,11,0,0,1,897.07,425.41Z"/><path class="8d3fc613-29c0-42a4-9f68-e70126f83c4a" d="M919.5,417a8.65,8.65,0,0,1-2.07,6.21,7.3,7.3,0,0,1-5.58,2.19,7.66,7.66,0,0,1-3.88-1,6.82,6.82,0,0,1-2.67-2.85,9.84,9.84,0,0,1-1-4.58,8.7,8.7,0,0,1,2-6.19,7.3,7.3,0,0,1,5.58-2.18,7.73,7.73,0,0,1,3.92,1,6.83,6.83,0,0,1,2.67,2.83A9.73,9.73,0,0,1,919.5,417Zm-11.91,0a7.54,7.54,0,0,0,1,4.26,4.29,4.29,0,0,0,6.57,0,7.54,7.54,0,0,0,1-4.26,7.35,7.35,0,0,0-1-4.24,3.75,3.75,0,0,0-3.31-1.49,3.71,3.71,0,0,0-3.28,1.49A7.44,7.44,0,0,0,907.59,417Z"/><path class="8d3fc613-29c0-42a4-9f68-e70126f83c4a" d="M941.65,408.64a5.48,5.48,0,0,1,4.1,1.41,6.3,6.3,0,0,1,1.39,4.53v10.53H944V415q0-3.75-3-3.75a3.52,3.52,0,0,0-3.09,1.34,6.71,6.71,0,0,0-.92,3.82v8.7h-3.16V415c0-2.5-1-3.75-3-3.75a3.31,3.31,0,0,0-3.14,1.47,8.52,8.52,0,0,0-.85,4.23v8.16h-3.18V408.94h2.52l.45,2.16h.17a4.61,4.61,0,0,1,2-1.86,6.32,6.32,0,0,1,2.72-.6q3.72,0,4.91,2.61h.25a4.77,4.77,0,0,1,2.16-2A6.8,6.8,0,0,1,941.65,408.64Z"/><path class="8d3fc613-29c0-42a4-9f68-e70126f83c4a" d="M960.07,408.64a5.84,5.84,0,0,1,4.7,2.1q1.79,2.1,1.78,6.27t-1.8,6.26a5.85,5.85,0,0,1-4.71,2.14,6,6,0,0,1-3-.67,6.07,6.07,0,0,1-1.87-1.61H955c0,.36.08.79.13,1.28a12.79,12.79,0,0,1,.07,1.3v6.6H952V408.94h2.58l.44,2.16h.15a6.18,6.18,0,0,1,1.85-1.74A5.71,5.71,0,0,1,960.07,408.64Zm-.75,2.61a3.64,3.64,0,0,0-3.18,1.29,6.86,6.86,0,0,0-1,4V417a8.47,8.47,0,0,0,.91,4.32,3.51,3.51,0,0,0,3.3,1.5,3.2,3.2,0,0,0,2.94-1.62,8.23,8.23,0,0,0,.95-4.23,7.71,7.71,0,0,0-1-4.17A3.29,3.29,0,0,0,959.32,411.25Z"/><path class="8d3fc613-29c0-42a4-9f68-e70126f83c4a" d="M984.84,417a8.65,8.65,0,0,1-2.07,6.21,7.3,7.3,0,0,1-5.58,2.19,7.66,7.66,0,0,1-3.88-1,6.82,6.82,0,0,1-2.67-2.85,9.84,9.84,0,0,1-1-4.58,8.7,8.7,0,0,1,2-6.19,7.3,7.3,0,0,1,5.58-2.18,7.73,7.73,0,0,1,3.92,1,6.83,6.83,0,0,1,2.67,2.83A9.73,9.73,0,0,1,984.84,417Zm-11.91,0a7.54,7.54,0,0,0,1,4.26,4.29,4.29,0,0,0,6.57,0,7.54,7.54,0,0,0,1-4.26,7.35,7.35,0,0,0-1-4.24,3.75,3.75,0,0,0-3.31-1.49,3.71,3.71,0,0,0-3.28,1.49A7.44,7.44,0,0,0,972.93,417Z"/><path class="8d3fc613-29c0-42a4-9f68-e70126f83c4a" d="M997.05,408.64a6.07,6.07,0,0,1,4.32,1.41q1.5,1.41,1.5,4.53v10.53h-3.15V415q0-3.78-3.33-3.78a3.72,3.72,0,0,0-3.4,1.47,7.84,7.84,0,0,0-1,4.23v8.16h-3.18V408.94h2.52l.45,2.16H992a4.69,4.69,0,0,1,2.15-1.86A7.09,7.09,0,0,1,997.05,408.64Z"/><path class="8d3fc613-29c0-42a4-9f68-e70126f83c4a" d="M1014.12,408.64a6.51,6.51,0,0,1,5,2A7.53,7.53,0,0,1,1021,416v1.74H1010.1a5.55,5.55,0,0,0,1.31,3.81,4.56,4.56,0,0,0,3.49,1.32,12.27,12.27,0,0,0,2.78-.28,14.28,14.28,0,0,0,2.5-.86v2.64a11.32,11.32,0,0,1-2.46.83,14.72,14.72,0,0,1-2.94.25,8.89,8.89,0,0,1-4.14-.93,6.6,6.6,0,0,1-2.8-2.76,9.38,9.38,0,0,1-1-4.56,10.54,10.54,0,0,1,.92-4.62,6.74,6.74,0,0,1,2.55-2.89A7.14,7.14,0,0,1,1014.12,408.64Zm0,2.46a3.56,3.56,0,0,0-2.74,1.11,5.14,5.14,0,0,0-1.22,3.15h7.62a5.13,5.13,0,0,0-.91-3.07A3.21,3.21,0,0,0,1014.12,411.1Z"/><path class="8d3fc613-29c0-42a4-9f68-e70126f83c4a" d="M1033.11,408.64a6.07,6.07,0,0,1,4.32,1.41q1.5,1.41,1.5,4.53v10.53h-3.15V415q0-3.78-3.33-3.78a3.72,3.72,0,0,0-3.4,1.47,7.84,7.84,0,0,0-1,4.23v8.16h-3.18V408.94h2.52l.45,2.16h.18a4.69,4.69,0,0,1,2.15-1.86A7.09,7.09,0,0,1,1033.11,408.64Z"/><path class="8d3fc613-29c0-42a4-9f68-e70126f83c4a" d="M1049.64,422.83a7.12,7.12,0,0,0,2.43-.39v2.4a5.89,5.89,0,0,1-1.38.41,9.31,9.31,0,0,1-1.74.16,6.27,6.27,0,0,1-2.41-.45,3.63,3.63,0,0,1-1.76-1.56,6.06,6.06,0,0,1-.66-3.09v-8.94h-2.25v-1.44l2.37-1.2,1.11-3.42h2v3.63h4.62v2.43h-4.62v8.88a2.62,2.62,0,0,0,.65,1.95A2.31,2.31,0,0,0,1049.64,422.83Z"/><path class="8d3fc613-29c0-42a4-9f68-e70126f83c4a" d="M1071,411.37h-4v13.74h-3.18V411.37h-2.73v-1.5l2.73-1v-1c0-2.06.48-3.52,1.43-4.39a5.66,5.66,0,0,1,4-1.31,9.49,9.49,0,0,1,1.92.18,11.7,11.7,0,0,1,1.47.39l-.81,2.43c-.34-.1-.72-.19-1.14-.28a6.14,6.14,0,0,0-1.29-.14q-2.37,0-2.37,3.15v1.05h4Z"/><path class="8d3fc613-29c0-42a4-9f68-e70126f83c4a" d="M1088.07,417a8.69,8.69,0,0,1-2.07,6.21,7.31,7.31,0,0,1-5.58,2.19,7.63,7.63,0,0,1-3.88-1,6.82,6.82,0,0,1-2.67-2.85,9.84,9.84,0,0,1-1-4.58,8.7,8.7,0,0,1,2-6.19,7.28,7.28,0,0,1,5.58-2.18,7.73,7.73,0,0,1,3.92,1,6.83,6.83,0,0,1,2.67,2.83A9.73,9.73,0,0,1,1088.07,417Zm-11.91,0a7.54,7.54,0,0,0,1,4.26,4.29,4.29,0,0,0,6.57,0,7.54,7.54,0,0,0,1-4.26,7.36,7.36,0,0,0-1-4.24,3.77,3.77,0,0,0-3.32-1.49,3.69,3.69,0,0,0-3.27,1.49A7.44,7.44,0,0,0,1076.16,417Z"/><path class="8d3fc613-29c0-42a4-9f68-e70126f83c4a" d="M1100.07,408.64a9.74,9.74,0,0,1,1.77.15l-.33,3a6.2,6.2,0,0,0-1.62-.21,4.48,4.48,0,0,0-4,2.33,5.36,5.36,0,0,0-.65,2.71v8.52h-3.18V408.94h2.52l.42,2.88h.12a7.46,7.46,0,0,1,2-2.23A4.72,4.72,0,0,1,1100.07,408.64Z"/><path class="8d3fc613-29c0-42a4-9f68-e70126f83c4a" d="M1128.6,403.69,1121,425.11h-3.36l-7.53-21.42h3.33l4.59,13.44q.39,1.08.75,2.37a23.69,23.69,0,0,1,.54,2.34,23.69,23.69,0,0,1,.54-2.34q.36-1.29.75-2.4l4.59-13.41Z"/><path class="8d3fc613-29c0-42a4-9f68-e70126f83c4a" d="M1144.71,408.94v16.17h-2.55l-.45-2.13h-.15a4.59,4.59,0,0,1-2.16,1.85,7.38,7.38,0,0,1-2.91.58,6.16,6.16,0,0,1-4.35-1.39c-1-.93-1.5-2.43-1.5-4.49V408.94h3.21v10.11a4.26,4.26,0,0,0,.8,2.82,3.07,3.07,0,0,0,2.47.93,3.82,3.82,0,0,0,3.45-1.45,7.68,7.68,0,0,0,1-4.22v-8.19Z"/><path class="8d3fc613-29c0-42a4-9f68-e70126f83c4a" d="M1156.05,408.64a6.51,6.51,0,0,1,5,2,7.53,7.53,0,0,1,1.83,5.35v1.74H1152a5.55,5.55,0,0,0,1.31,3.81,4.56,4.56,0,0,0,3.49,1.32,12.27,12.27,0,0,0,2.78-.28,14.28,14.28,0,0,0,2.5-.86v2.64a11.32,11.32,0,0,1-2.46.83,14.72,14.72,0,0,1-2.94.25,8.89,8.89,0,0,1-4.14-.93,6.6,6.6,0,0,1-2.8-2.76,9.38,9.38,0,0,1-1-4.56,10.54,10.54,0,0,1,.92-4.62,6.74,6.74,0,0,1,2.55-2.89A7.14,7.14,0,0,1,1156.05,408.64Zm0,2.46a3.56,3.56,0,0,0-2.74,1.11,5.14,5.14,0,0,0-1.22,3.15h7.62a5.13,5.13,0,0,0-.91-3.07A3.21,3.21,0,0,0,1156.05,411.1Z"/><line class="f45e3ff7-9d09-4565-9023-3c753b1b1615" x1="1165" y1="374.37" x2="115" y2="374.37"/><polygon class="e3cc3a33-702c-4cc8-9120-696c4dc1e939" points="595.51 263.4 580.32 289.72 530.89 204.1 561.3 204.1 578.25 233.48 580.32 237.06 595.51 263.4"/><path class="be8fa0a5-c690-490c-971a-387e3f4c3ffe" d="M580.32,290.61a.89.89,0,0,1-.77-.44l-49.43-85.62a.89.89,0,0,1,0-.89.89.89,0,0,1,.77-.44H561.3a.89.89,0,0,1,.77.44L596.28,263a.89.89,0,0,1,0,.89l-15.19,26.33A.89.89,0,0,1,580.32,290.61ZM532.43,205l47.89,82.95,14.17-24.54L560.79,205Z"/><polygon class="8d3fc613-29c0-42a4-9f68-e70126f83c4a" points="629.74 204.1 595.51 263.4 580.32 237.06 599.35 204.1 629.74 204.1"/><path class="be8fa0a5-c690-490c-971a-387e3f4c3ffe" d="M595.51,264.29h0a.88.88,0,0,1-.77-.45L579.55,237.5a.87.87,0,0,1,0-.88l19-33a.91.91,0,0,1,.78-.44h30.39a.89.89,0,0,1,.77.44.89.89,0,0,1,0,.89l-34.23,59.29A.88.88,0,0,1,595.51,264.29Zm-14.16-27.23,14.16,24.56L628.2,205H599.86Z"/><polygon class="8d3fc613-29c0-42a4-9f68-e70126f83c4a" points="664.71 264.69 650.26 289.72 648.78 289.72 629.74 256.77 644.71 230.02 664.71 264.69"/><path class="be8fa0a5-c690-490c-971a-387e3f4c3ffe" d="M650.26,290.61h-1.48a.89.89,0,0,1-.77-.44l-19-33a.89.89,0,0,1,0-.88l15-26.74a.91.91,0,0,1,.77-.46h0a.89.89,0,0,1,.77.45l20,34.66a.89.89,0,0,1,0,.89l-14.45,25A.89.89,0,0,1,650.26,290.61Zm-1-1.78h.46l13.93-24.14-19-32.87-14,24.94Z"/><path class="be8fa0a5-c690-490c-971a-387e3f4c3ffe" d="M645.48,229.58l-15-25.92a.92.92,0,0,0-1.54,0L594.74,263l-15.19,26.33a.89.89,0,0,0,0,.89.89.89,0,0,0,.77.44h30.4a.91.91,0,0,0,.77-.44l19-33,15-26.74A.89.89,0,0,0,645.48,229.58Z"/><polygon class="8d3fc613-29c0-42a4-9f68-e70126f83c4a" points="749.11 289.72 718.72 289.72 699.68 256.77 698.49 258.84 714.62 229.98 749.11 289.72"/><path class="be8fa0a5-c690-490c-971a-387e3f4c3ffe" d="M749.11,290.61H718.72a.88.88,0,0,1-.77-.44l-18.27-31.62-.42.73a.88.88,0,0,1-1.21.33.9.9,0,0,1-.34-1.21l16.13-28.85a.91.91,0,0,1,.77-.46h0a.89.89,0,0,1,.77.45l34.49,59.74a.89.89,0,0,1,0,.89A.89.89,0,0,1,749.11,290.61Zm-29.88-1.78h28.34l-32.94-57-14,25Z"/><path class="be8fa0a5-c690-490c-971a-387e3f4c3ffe" d="M715.39,229.54l-14.94-25.88a.92.92,0,0,0-1.54,0l-35,60.58-14.45,25a.89.89,0,0,0,0,.89.89.89,0,0,0,.77.44h30.39a.91.91,0,0,0,.78-.44L699,259.77l16.41-29.35A.89.89,0,0,0,715.39,229.54Z"/><path class="8d3fc613-29c0-42a4-9f68-e70126f83c4a" d="M544.51,316.05,537,337.47h-3.36l-7.53-21.42h3.33L534,329.49q.39,1.08.75,2.37a23.69,23.69,0,0,1,.54,2.34,23.69,23.69,0,0,1,.54-2.34q.36-1.29.75-2.4l4.59-13.41Z"/><path class="8d3fc613-29c0-42a4-9f68-e70126f83c4a" d="M560.62,321.3v16.17h-2.55l-.45-2.13h-.15a4.59,4.59,0,0,1-2.16,1.85,7.38,7.38,0,0,1-2.91.58,6.16,6.16,0,0,1-4.35-1.39c-1-.93-1.5-2.43-1.5-4.49V321.3h3.21v10.11a4.26,4.26,0,0,0,.8,2.82,3.06,3.06,0,0,0,2.47.93,3.82,3.82,0,0,0,3.45-1.45,7.68,7.68,0,0,0,1-4.22V321.3Z"/><path class="8d3fc613-29c0-42a4-9f68-e70126f83c4a" d="M572,321a6.51,6.51,0,0,1,5,2,7.53,7.53,0,0,1,1.83,5.35v1.74H567.94a5.55,5.55,0,0,0,1.31,3.81,4.56,4.56,0,0,0,3.49,1.32,12.27,12.27,0,0,0,2.78-.28,14.28,14.28,0,0,0,2.5-.86v2.64a11.32,11.32,0,0,1-2.46.83,14.72,14.72,0,0,1-2.94.25,8.89,8.89,0,0,1-4.14-.93,6.6,6.6,0,0,1-2.8-2.76,9.27,9.27,0,0,1-1-4.56,10.54,10.54,0,0,1,.92-4.62,6.74,6.74,0,0,1,2.55-2.89A7.14,7.14,0,0,1,572,321Zm0,2.46a3.56,3.56,0,0,0-2.74,1.11,5.14,5.14,0,0,0-1.22,3.15h7.62a5.13,5.13,0,0,0-.91-3.07A3.21,3.21,0,0,0,572,323.46Z"/><path class="e3cc3a33-702c-4cc8-9120-696c4dc1e939" d="M594.13,337.47h-3.21V316.05H603v2.76h-8.85v7h8.28v2.76h-8.28Z"/><path class="e3cc3a33-702c-4cc8-9120-696c4dc1e939" d="M608,315.15a2,2,0,0,1,1.26.42,1.68,1.68,0,0,1,.54,1.41,1.7,1.7,0,0,1-.54,1.4,1.94,1.94,0,0,1-1.26.43,2,2,0,0,1-1.29-.43,1.7,1.7,0,0,1-.54-1.4,1.68,1.68,0,0,1,.54-1.41A2,2,0,0,1,608,315.15Zm1.56,6.15v16.17H606.4V321.3Z"/><path class="e3cc3a33-702c-4cc8-9120-696c4dc1e939" d="M622.75,321a6.07,6.07,0,0,1,4.32,1.41q1.5,1.41,1.5,4.53v10.53h-3.15V327.39q0-3.78-3.33-3.78a3.75,3.75,0,0,0-3.41,1.47,7.94,7.94,0,0,0-.94,4.23v8.16h-3.18V321.3h2.52l.45,2.16h.18a4.67,4.67,0,0,1,2.14-1.86A7.14,7.14,0,0,1,622.75,321Z"/><path class="e3cc3a33-702c-4cc8-9120-696c4dc1e939" d="M639.73,321a6.69,6.69,0,0,1,4.54,1.34,5.29,5.29,0,0,1,1.52,4.18v11h-2.25l-.63-2.25h-.12a7.26,7.26,0,0,1-2.21,1.94,6.85,6.85,0,0,1-3.19.61,5.52,5.52,0,0,1-3.63-1.18,4.53,4.53,0,0,1-1.44-3.71,4.25,4.25,0,0,1,1.87-3.76,10.91,10.91,0,0,1,5.72-1.4l2.76-.09v-.9a2.76,2.76,0,0,0-3.09-3.24,7.82,7.82,0,0,0-2.37.36,16.1,16.1,0,0,0-2.19.87l-1-2.31a12.9,12.9,0,0,1,2.62-1A11.79,11.79,0,0,1,639.73,321Zm2.91,8.7-2.16.06a7.14,7.14,0,0,0-3.83.93,2.63,2.63,0,0,0-1.06,2.22,2.15,2.15,0,0,0,.75,1.83,3.14,3.14,0,0,0,1.95.57,4.64,4.64,0,0,0,3.1-1.05,3.89,3.89,0,0,0,1.25-3.15Z"/><path class="e3cc3a33-702c-4cc8-9120-696c4dc1e939" d="M653.86,337.47h-3.18v-22.8h3.18Z"/><path class="e3cc3a33-702c-4cc8-9120-696c4dc1e939" d="M676.33,337.47l-6.48-18.21h-.12c0,.42.07,1,.1,1.64s.06,1.4.08,2.19,0,1.55,0,2.29v12.09H667V316.05h4.62l6.15,17.19h.12l6.33-17.19h4.62v21.42h-3.15V325.2c0-.7,0-1.42,0-2.16s.06-1.44.09-2.1.06-1.21.08-1.65h-.12l-6.66,18.18Z"/><path class="e3cc3a33-702c-4cc8-9120-696c4dc1e939" d="M708.43,329.37a8.69,8.69,0,0,1-2.07,6.21,7.31,7.31,0,0,1-5.58,2.19,7.67,7.67,0,0,1-3.89-1,6.82,6.82,0,0,1-2.67-2.85,9.84,9.84,0,0,1-1-4.58,8.7,8.7,0,0,1,2-6.19,7.28,7.28,0,0,1,5.58-2.18,7.69,7.69,0,0,1,3.91,1,6.83,6.83,0,0,1,2.67,2.83A9.73,9.73,0,0,1,708.43,329.37Zm-11.91,0a7.54,7.54,0,0,0,1,4.26,4.29,4.29,0,0,0,6.57,0,7.54,7.54,0,0,0,1-4.26,7.35,7.35,0,0,0-1-4.24,3.75,3.75,0,0,0-3.31-1.49,3.69,3.69,0,0,0-3.27,1.49A7.44,7.44,0,0,0,696.52,329.37Z"/><path class="e3cc3a33-702c-4cc8-9120-696c4dc1e939" d="M718,337.77a5.85,5.85,0,0,1-4.71-2.1q-1.77-2.1-1.77-6.24t1.8-6.3a5.9,5.9,0,0,1,4.74-2.13,5.84,5.84,0,0,1,3,.69,6.17,6.17,0,0,1,1.89,1.68h.18q-.06-.42-.15-1.23a13,13,0,0,1-.09-1.41v-6.06h3.18v22.8h-2.49l-.54-2.16h-.15a6,6,0,0,1-1.86,1.74A5.71,5.71,0,0,1,718,337.77Zm.75-2.61a3.8,3.8,0,0,0,3.28-1.29,6.79,6.79,0,0,0,1-3.93v-.48a8.43,8.43,0,0,0-.92-4.35,3.62,3.62,0,0,0-3.37-1.5,3.26,3.26,0,0,0-2.94,1.56,8,8,0,0,0-1,4.32,7.49,7.49,0,0,0,1,4.2A3.34,3.34,0,0,0,718.75,335.16Z"/><path class="e3cc3a33-702c-4cc8-9120-696c4dc1e939" d="M737.32,321a6.69,6.69,0,0,1,4.54,1.34,5.29,5.29,0,0,1,1.52,4.18v11h-2.25l-.63-2.25h-.12a7.26,7.26,0,0,1-2.21,1.94,6.85,6.85,0,0,1-3.19.61,5.52,5.52,0,0,1-3.63-1.18,4.53,4.53,0,0,1-1.44-3.71,4.25,4.25,0,0,1,1.87-3.76,10.91,10.91,0,0,1,5.72-1.4l2.76-.09v-.9a2.76,2.76,0,0,0-3.09-3.24,7.82,7.82,0,0,0-2.37.36,16.1,16.1,0,0,0-2.19.87l-1-2.31a12.9,12.9,0,0,1,2.62-1A11.79,11.79,0,0,1,737.32,321Zm2.91,8.7-2.16.06a7.14,7.14,0,0,0-3.83.93,2.63,2.63,0,0,0-1.06,2.22,2.15,2.15,0,0,0,.75,1.83,3.14,3.14,0,0,0,2,.57,4.64,4.64,0,0,0,3.1-1.05,3.89,3.89,0,0,0,1.25-3.15Z"/><path class="e3cc3a33-702c-4cc8-9120-696c4dc1e939" d="M751.45,337.47h-3.18v-22.8h3.18Z"/><path class="16421ef2-2e83-4ec3-84f2-cde6dab92a42" d="M93.23,75.62l-1.7,3-5.8-10.21L67.94,99.73H80a3,3,0,0,0,2.93,3h-15a3,3,0,0,1-2.55-1.49,3.06,3.06,0,0,1,0-3L83.19,66.9a2.92,2.92,0,0,1,5.09,0Z"/><path class="8d3fc613-29c0-42a4-9f68-e70126f83c4a" d="M106.07,98.24,94.92,78.6l-1.69-3-1.7,3L80.38,98.24a3.06,3.06,0,0,0,0,3,2.92,2.92,0,0,0,2.54,1.49h20.61a2.92,2.92,0,0,0,2.54-1.49,3,3,0,0,0,0-3ZM82.92,99.73,93.23,81.59l10.3,18.14Z"/><path class="49acf24a-f9e9-499b-b736-9ead4fd35f1d" d="M114.05,101.23a2.93,2.93,0,0,1-2.54,1.49h-8a3,3,0,0,0,2.93-3h5L97.21,74.57l-2.29,4-1.69-3,1.44-2.54a2.91,2.91,0,0,1,5.08,0l14.3,25.16A3.06,3.06,0,0,1,114.05,101.23Z"/><path class="16421ef2-2e83-4ec3-84f2-cde6dab92a42" d="M1196,547.49l-1.7,3-5.79-10.21-17.8,31.34h12a3,3,0,0,0,2.93,3h-15a2.9,2.9,0,0,1-2.54-1.49,3,3,0,0,1,0-3l17.79-31.34a2.91,2.91,0,0,1,5.09,0Z"/><path class="8d3fc613-29c0-42a4-9f68-e70126f83c4a" d="M1208.83,570.12l-11.16-19.64-1.69-3-1.7,3-11.15,19.64a3,3,0,0,0,0,3,2.93,2.93,0,0,0,2.54,1.49h20.61a2.93,2.93,0,0,0,2.55-1.49,3,3,0,0,0,0-3Zm-23.16,1.49L1196,553.46l10.3,18.15Z"/><path class="49acf24a-f9e9-499b-b736-9ead4fd35f1d" d="M1216.8,573.1a2.9,2.9,0,0,1-2.54,1.49h-8a3,3,0,0,0,2.94-3h5L1200,546.45l-2.29,4-1.69-3,1.44-2.54a2.92,2.92,0,0,1,5.09,0l14.29,25.17A3,3,0,0,1,1216.8,573.1Z"/><polygon class="e3cc3a33-702c-4cc8-9120-696c4dc1e939" points="1166.18 85.1 1161.16 93.8 1144.84 65.52 1154.88 65.52 1160.48 75.22 1161.16 76.41 1166.18 85.1"/><path class="be8fa0a5-c690-490c-971a-387e3f4c3ffe" d="M1161.16,94.09a.29.29,0,0,1-.25-.15l-16.33-28.27a.3.3,0,0,1,0-.29.31.31,0,0,1,.26-.15h10a.28.28,0,0,1,.25.15L1166.43,85a.26.26,0,0,1,0,.29l-5,8.69A.31.31,0,0,1,1161.16,94.09Zm-15.81-28.27,15.81,27.39,4.68-8.11-11.13-19.28Z"/><polygon class="8d3fc613-29c0-42a4-9f68-e70126f83c4a" points="1177.48 65.52 1166.18 85.1 1161.16 76.41 1167.44 65.52 1177.48 65.52"/><path class="be8fa0a5-c690-490c-971a-387e3f4c3ffe" d="M1166.18,85.4h0a.31.31,0,0,1-.26-.15l-5-8.7a.3.3,0,0,1,0-.29l6.28-10.88a.29.29,0,0,1,.25-.15h10a.31.31,0,0,1,.26.15.3.3,0,0,1,0,.29l-11.31,19.58A.29.29,0,0,1,1166.18,85.4Zm-4.68-9,4.68,8.11L1177,65.82h-9.36Z"/><polygon class="8d3fc613-29c0-42a4-9f68-e70126f83c4a" points="1189.03 85.53 1184.26 93.8 1183.77 93.8 1177.48 82.91 1182.42 74.08 1189.03 85.53"/><path class="be8fa0a5-c690-490c-971a-387e3f4c3ffe" d="M1184.26,94.09h-.49a.31.31,0,0,1-.26-.15l-6.28-10.88a.28.28,0,0,1,0-.29l4.94-8.83a.29.29,0,0,1,.25-.15h0a.28.28,0,0,1,.26.15l6.6,11.44a.27.27,0,0,1,0,.3l-4.77,8.26A.29.29,0,0,1,1184.26,94.09Zm-.32-.59h.15l4.6-8-6.26-10.85-4.61,8.23Z"/><path class="be8fa0a5-c690-490c-971a-387e3f4c3ffe" d="M1182.68,73.94l-4.94-8.56a.3.3,0,0,0-.51,0L1165.92,85l-5,8.69a.3.3,0,0,0,0,.29.29.29,0,0,0,.25.15h10a.29.29,0,0,0,.25-.15l6.29-10.88,4.94-8.83A.3.3,0,0,0,1182.68,73.94Z"/><polygon class="8d3fc613-29c0-42a4-9f68-e70126f83c4a" points="1216.9 93.8 1206.86 93.8 1200.58 82.91 1200.18 83.6 1205.51 74.07 1216.9 93.8"/><path class="be8fa0a5-c690-490c-971a-387e3f4c3ffe" d="M1216.9,94.09h-10a.29.29,0,0,1-.25-.15l-6-10.44-.14.24a.29.29,0,1,1-.51-.29l5.32-9.53a.34.34,0,0,1,.26-.15h0a.28.28,0,0,1,.25.15l11.4,19.73a.3.3,0,0,1,0,.29A.31.31,0,0,1,1216.9,94.09ZM1207,93.5h9.36l-10.88-18.84-4.6,8.24Z"/><path class="be8fa0a5-c690-490c-971a-387e3f4c3ffe" d="M1205.76,73.92l-4.93-8.54a.3.3,0,0,0-.51,0l-11.55,20L1184,93.65a.3.3,0,0,0,0,.29.31.31,0,0,0,.26.15h10a.29.29,0,0,0,.25-.15l5.8-10,5.42-9.69A.28.28,0,0,0,1205.76,73.92Z"/><polygon class="e3cc3a33-702c-4cc8-9120-696c4dc1e939" points="86.63 565.61 81.62 574.3 65.29 546.02 75.34 546.02 80.93 555.73 81.62 556.91 86.63 565.61"/><path class="be8fa0a5-c690-490c-971a-387e3f4c3ffe" d="M81.62,574.59a.3.3,0,0,1-.26-.14L65,546.17a.3.3,0,0,1,0-.29.29.29,0,0,1,.25-.15h10a.29.29,0,0,1,.25.15l11.3,19.58a.3.3,0,0,1,0,.29l-5,8.7A.29.29,0,0,1,81.62,574.59ZM65.8,546.32l15.82,27.39,4.68-8.1L75.17,546.32Z"/><polygon class="8d3fc613-29c0-42a4-9f68-e70126f83c4a" points="97.94 546.02 86.63 565.61 81.62 556.91 87.9 546.02 97.94 546.02"/><path class="be8fa0a5-c690-490c-971a-387e3f4c3ffe" d="M86.63,565.9h0a.29.29,0,0,1-.25-.15l-5-8.7a.3.3,0,0,1,0-.29l6.29-10.88a.28.28,0,0,1,.25-.15h10a.29.29,0,0,1,.25.15.3.3,0,0,1,0,.29l-11.3,19.58A.3.3,0,0,1,86.63,565.9Zm-4.67-9L86.63,565l10.8-18.7H88.07Z"/><polygon class="8d3fc613-29c0-42a4-9f68-e70126f83c4a" points="109.48 566.03 104.71 574.3 104.22 574.3 97.94 563.42 102.88 554.58 109.48 566.03"/><path class="be8fa0a5-c690-490c-971a-387e3f4c3ffe" d="M104.71,574.59h-.49a.29.29,0,0,1-.25-.14l-6.29-10.89a.3.3,0,0,1,0-.29l4.94-8.83a.3.3,0,0,1,.26-.15h0a.29.29,0,0,1,.25.15l6.61,11.44a.32.32,0,0,1,0,.3L105,574.45A.29.29,0,0,1,104.71,574.59Zm-.32-.59h.15l4.61-8-6.27-10.85-4.61,8.23Z"/><path class="be8fa0a5-c690-490c-971a-387e3f4c3ffe" d="M103.13,554.44l-4.94-8.56a.31.31,0,0,0-.51,0l-11.3,19.58-5,8.69a.32.32,0,0,0,0,.3.3.3,0,0,0,.26.14h10a.29.29,0,0,0,.26-.14l6.28-10.89,5-8.83A.28.28,0,0,0,103.13,554.44Z"/><polygon class="8d3fc613-29c0-42a4-9f68-e70126f83c4a" points="137.36 574.3 127.32 574.3 121.03 563.42 120.64 564.1 125.97 554.57 137.36 574.3"/><path class="be8fa0a5-c690-490c-971a-387e3f4c3ffe" d="M137.36,574.59h-10a.3.3,0,0,1-.26-.14L121,564l-.14.25a.28.28,0,0,1-.39.11.29.29,0,0,1-.12-.4l5.33-9.53a.27.27,0,0,1,.25-.15h0a.29.29,0,0,1,.25.14l11.39,19.73a.32.32,0,0,1,0,.3A.29.29,0,0,1,137.36,574.59Zm-9.87-.59h9.36L126,555.16l-4.6,8.24Z"/><path class="be8fa0a5-c690-490c-971a-387e3f4c3ffe" d="M126.22,554.42l-4.93-8.54a.31.31,0,0,0-.51,0l-11.55,20-4.77,8.27a.32.32,0,0,0,0,.3.29.29,0,0,0,.25.14h10a.27.27,0,0,0,.25-.14l5.8-10,5.42-9.7A.3.3,0,0,0,126.22,554.42Z"/></svg>